# xmcd
#
# Track frame offsets: 
#        150
#        17132
#        43332
#        61269
#        74653
#        92073
#        108325
#        125493
#        152216
#        170038
#        184611
#        199833
#        218007
#        233196
#
# Disc length: 3320 seconds
#
# Revision: 0
# Processed by: cddbd v1.5.1PL2 Copyright (c) Steve Scherf et al.
# Submitted via: ExactAudioCopy v0.95b3
#
DISCID=cc0cf60e
DTITLE=Bob Dylan - The French Girl [CD3]
DYEAR=1987
DGENRE=
TTITLE0=Walking Down The Line
TTITLE1=Simple Twist Of Fate
TTITLE2=Gotta Serve Somebody
TTITLE3=Gonna Change My Way Of Thinking
TTITLE4=Maggie's Farm
TTITLE5=Chimes Of Freedom
TTITLE6=All I Really Want To Do
TTITLE7=John Brown
TTITLE8=Heart Of Mine
TTITLE9=Rollin' In My Sweet Baby's Arms
TTITLE10=John Hardy
TTITLE11=Heart Of Mine
TTITLE12=The Wicked Messenger
TTITLE13=Watching The River Flow
EXTD=
EXTT0=
EXTT1=
EXTT2=
EXTT3=
EXTT4=
EXTT5=
EXTT6=
EXTT7=
EXTT8=
EXTT9=
EXTT10=
EXTT11=
EXTT12=
EXTT13=
PLAYORDER=
